# AST/ASF file generated using VICON BodyLanguage
# -----------------------------------------------
:version 1.10
:name VICON
:units
  mass 1.0
  length 0.45
  angle deg
:documentation
   .ast/.asf automatically generated from VICON data using
   VICON BodyBuilder and BodyLanguage model FoxedUp or BRILLIANT.MOD
:root
   order TX TY TZ RX RY RZ
   axis XYZ
   position 0 0 0  
   orientation 0 0 0 
:bonedata
  begin
     id 1 
     name lhipjoint
     direction 0.521452 -0.77106 0.36545 
     length 2.0933 
     axis 0 0 0  XYZ
  end
  begin
     id 2 
     name lfemur
     direction 0.34202 -0.939693 0  
     length 6.83441  
     axis 0 0 20  XYZ
    dof rx ry rz
    limits (-160.0 20.0)
           (-70.0 70.0)
           (-60.0 70.0)
  end
  begin
     id 3 
     name ltibia
     direction 0.34202 -0.939693 0   
     length 7.28749   
     axis 0 0 20   XYZ
    dof rx
    limits (-10.0 170.0)
  end
  begin
     id 4 
     name lfoot
     direction 0.100608 -0.276418 0.955757   
     length 1.52195   
     axis -90 7.62852e-016 20   XYZ
    dof rx rz
    limits (-45.0 90.0)
           (-70.0 20.0)
  end
  begin
     id 5 
     name ltoes
     direction 1.53558e-011 -4.21907e-011 1   
     length 0.770459   
     axis -90 7.62852e-016 20   XYZ
    dof rx
    limits (-90.0 20.0)
  end
  begin
     id 6 
     name rhipjoint
     direction -0.488071 -0.788702 0.373812   
     length 2.04648  
     axis 0 0 0  XYZ 
  end
  begin
     id 7 
     name rfemur
     direction -0.34202 -0.939693 0   
     length 6.92583   
     axis 0 0 -20   XYZ
    dof rx ry rz
    limits (-160.0 20.0)
           (-70.0 70.0)
           (-70.0 60.0)
  end
  begin
     id 8 
     name rtibia
     direction -0.34202 -0.939693 0   
     length 7.41043   
     axis 0 0 -20   XYZ
    dof rx
    limits (-10.0 170.0)
 end
 begin
     id 9 
     name rfoot
     direction -0.0784433 -0.215521 0.973343   
     length 1.67708  
     axis -90 -7.62852e-016 -20   XYZ
    dof rx rz
    limits (-45.0 90.0)
           (-20.0 70.0)
  end
  begin
     id 10 
     name rtoes
     direction -1.53551e-011 -4.21842e-011 1   
     length 0.849787   
     axis -90 -7.62852e-016 -20   XYZ
    dof rx
    limits (-90.0 20.0)
  end
  begin
     id 11 
     name lowerback
     direction -0.0122332 0.997575 -0.0685192   
     length 1.98724   
     axis 0 0 0   XYZ
    dof rx ry rz
    limits (-20.0 45.0)
           (-30.0 30.0)
           (-30.0 30.0)
  end
  begin
     id 12 
     name upperback
     direction 0.0182347 0.999724 -0.0148421   
     length 1.99029   
     axis 0 0 0   XYZ
    dof rx ry rz
    limits (-20.0 45.0)
           (-30.0 30.0)
           (-30.0 30.0)
  end
  begin
     id 13 
     name thorax
     direction 0.0242908 0.99956 0.0170184   
     length 1.99573   
     axis 0 0 0   XYZ
    dof rx ry rz
    limits (-20.0 45.0)
           (-30.0 30.0)
           (-30.0 30.0)
  end
  begin
     id 14 
     name lowerneck
     direction 0.0654488 0.985533 0.156338   
     length 1.4285   
     axis 0 0 0   XYZ
    dof rx ry rz
    limits (-20.0 45.0)
           (-30.0 30.0)
           (-30.0 30.0)
  end
  begin
     id 15 
     name upperneck
     direction -0.02953 0.998556 -0.0448842   
     length 1.44709   
     axis 0 0 0   XYZ
    dof rx ry rz
    limits (-20.0 45.0)
           (-30.0 30.0)
           (-30.0 30.0)
  end
  begin
     id 16
     name head
     direction -0.0155588 0.999386 -0.0314063  
     length 1.44689  
     axis 0 0 0   XYZ
    dof rx ry rz
    limits (-20.0 45.0)
           (-30.0 30.0)
           (-30.0 30.0)
  end
  begin
     id 17 
     name lclavicle
     direction 0.968229 0.236071 -0.0824755  
     length 3.60593  
     axis 0 0 0   XYZ
    dof ry rz
    limits (-20.0 10.0)
           (0.0 20.0)
  end
  begin
     id 18 
     name lhumerus
     direction 1 -4.48968e-011 7.8138e-029   
     length 5.06035   
     axis 180 -30 -90   XYZ
    dof rx ry rz
    limits (-60.0 90.0)
           (-90.0 90.0)
           (-90.0 90.0)
  end
  begin
     id 19
     name lradius
     direction 1 -4.48967e-011 9.02887e-028   
     length 3.1478   
     axis 180 -30 -90   XYZ
    dof rx
    limits (-10.0 170.0)
  end
  begin
     id 20
     name lwrist
     direction 1 -4.48961e-011 7.20928e-028   
     length 1.5739   
     axis -5.52449e-016 90 90   XYZ
    dof ry
    limits (-180.0 0.0)
 end
  begin
     id 21 
     name lhand
     direction 1 -4.48972e-011 1.44186e-027   
     length 0.606747   
     axis -9.20027e-016 90 90   XYZ
    dof rx rz
    limits (-90.0 90.0)
           (-45.0 45.0)
  end
  begin
     id 22 
     name lfingers
     direction 1 -4.48943e-011 2.88371e-027   
     length 0.489175   
     axis -1.84005e-015 90 90   XYZ
    dof rx
    limits (0.0 90.0)
  end
  begin
     id 23
     name lthumb
     direction 0.707107 -6.34917e-011 0.707107   
     length 0.70236   
     axis -90 45 2.85299e-015   XYZ
    dof rx rz
    limits (-45.0 45.0)
           (-45.0 45.0)
  end
  begin
     id 24 
     name rclavicle
     direction -0.978165 0.207816 0.0022268   
     length 3.35425  
     axis 0 0 0   XYZ 
    dof ry rz
    limits (-10.0 20.0)
           (-20.0 0.0)
  end
  begin
     id 25 
     name rhumerus
     direction -1 -4.48964e-011 -4.02159e-027  
     length 5.12273   
     axis 180 30 90   XYZ
    dof rx ry rz
    limits (-90.0 60.0)
           (-90.0 90.0)
           (-90.0 90.0)
  end
  begin
     id 26 
     name rradius
     direction -1 -4.48966e-011 1.62746e-027   
     length 3.422   
     axis 180 30 90   XYZ
    dof rx
    limits (-10.0 170.0)
  end
  begin
     id 27 
     name rwrist
     direction -1 -4.4896e-011 7.20928e-028   
     length 1.711   
     axis -5.52449e-016 -90 -90   XYZ
    dof ry
    limits (-180.0 0.0)
  end
  begin
     id 28
     name rhand
     direction -1 -4.48979e-011 1.44186e-027   
     length 0.704599   
     axis -9.20027e-016 -90 -90   XYZ
    dof rx rz
    limits (-90.0 90.0)
           (-45.0 45.0)
  end
  begin
     id 29
     name rfingers
     direction -1 -4.48962e-011 2.88371e-027   
     length 0.568066   
     axis -1.84005e-015 -90 -90   XYZ
    dof rx
    limits (0.0 90.0)
  end
  begin
     id 30
     name rthumb
     direction -0.707107 -6.34949e-011 0.707107   
     length 0.815633   
     axis -90 -45 -2.85299e-015   XYZ
    dof rx rz
    limits (-45.0 45.0)
           (-45.0 45.0)
  end
:hierarchy
  begin
    root lhipjoint rhipjoint lowerback
    lhipjoint lfemur
    lfemur ltibia
    ltibia lfoot
    lfoot ltoes
    rhipjoint rfemur
    rfemur rtibia
    rtibia rfoot
    rfoot rtoes
    lowerback upperback
    upperback thorax
    thorax lowerneck lclavicle rclavicle
    lowerneck upperneck
    upperneck head
    lclavicle lhumerus
    lhumerus lradius
    lradius lwrist
    lwrist lhand lthumb
    lhand lfingers
    rclavicle rhumerus
    rhumerus rradius
    rradius rwrist
    rwrist rhand rthumb
    rhand rfingers
  end

#!OML:ASF E:\id_vita\Project 1\Capture day 1\Session 1\Male1.ASF
:FULLY-SPECIFIED
:DEGREES
445
root -23.2334 15.9819 -1.11291 -137.166 88.1962 -141.083
lowerback -6.39016 -0.0186205 -5.89441
upperback -2.72375 0.385387 0.113639
thorax 0.726545 0.260238 3.45453
lowerneck -1.19396 0.942651 5.62061
upperneck 2.64954 1.11985 5.9903
head 1.00942 0.750842 0.931977
rclavicle 2.68359e-015 1.11319e-014
rhumerus -34.2322 -18.8673 -80.99
rradius 15.2027
rwrist 17.8005
rhand -20.3176 36.8232
rfingers 7.12502
rthumb 6.03317 6.92912
lclavicle 2.68359e-015 1.11319e-014
lhumerus -29.0778 20.7114 79.4049
lradius 9.21171
lwrist -22.5494
lhand -11.9899 44.2395
lfingers 7.12502
lthumb 14.0668 73.7434
rfemur -3.61186 4.08899 15.3394
rtibia 18.4819
rfoot -12.5964 -18.3084
rtoes -18.4162
lfemur -9.97456 -6.58074 -15.1827
ltibia 28.6637
lfoot -22.5313 15.4009
ltoes -13.8564
446
root -23.233 15.9799 -1.11424 -136.858 88.1511 -140.704
lowerback -6.38412 -0.10594 -6.02459
upperback -2.66887 0.274036 0.25237
thorax 0.789308 0.201986 3.66444
lowerneck -1.6392 0.52016 5.04155
upperneck 3.11171 0.492624 6.2358
head 1.2337 0.460951 1.10324
rclavicle 7.20594e-015 0
rhumerus -34.0576 -18.2033 -81.199
rradius 15.3729
rwrist 17.2869
rhand -20.5886 36.7826
rfingers 7.12502
rthumb 5.77152 6.88125
lclavicle 7.20594e-015 0
lhumerus -29.2362 21.0739 79.5357
lradius 9.38677
lwrist -22.6974
lhand -11.9473 44.0812
lfingers 7.12502
lthumb 14.1078 73.5823
rfemur -3.47388 4.12974 15.3835
rtibia 18.3956
rfoot -12.5785 -18.3846
rtoes -18.357
lfemur -9.91726 -6.43698 -15.138
ltibia 28.7108
lfoot -22.7148 15.2721
ltoes -13.6606
447
root -23.2369 15.9778 -1.11717 -132.485 88.0714 -136.243
lowerback -6.29258 -0.166911 -5.99233
upperback -2.65109 0.18166 0.379555
thorax 0.766283 0.155679 3.7716
lowerneck -1.6302 0.207804 4.8267
upperneck 2.9563 0.0881355 6.10061
head 1.18577 0.244943 1.08883
rclavicle 6.95746e-016 -7.95139e-016
rhumerus -33.9465 -17.7265 -81.3989
rradius 15.5152
rwrist 16.916
rhand -20.8145 36.7234
rfingers 7.12502
rthumb 5.55347 6.81619
lclavicle 6.95746e-016 -7.95139e-016
lhumerus -29.4084 21.4515 79.6454
lradius 9.4498
lwrist -22.9492
lhand -11.8598 44.1626
lfingers 7.12502
lthumb 14.1921 73.6578
rfemur -3.37645 4.31913 15.5324
rtibia 18.3427
rfoot -12.7568 -18.3649
rtoes -17.4366
lfemur -9.83266 -6.37098 -14.9735
ltibia 28.7415
lfoot -22.8156 15.2127
ltoes -13.1763
448
root -23.242 15.9789 -1.11909 -132.802 88.0017 -136.538
lowerback -6.23375 -0.28326 -6.05481
upperback -2.63369 0.0250026 0.44884
thorax 0.768217 0.0771694 3.868
lowerneck -1.55436 -0.136039 4.30272
upperneck 2.93857 -0.360379 6.38907
head 1.17471 0.0173225 1.26029
rclavicle -3.57812e-015 7.15625e-015
rhumerus -33.7859 -17.4816 -81.5463
rradius 15.6021
rwrist 16.7959
rhand -20.8581 36.5571
rfingers 7.12502
rthumb 5.51132 6.64879
lclavicle -3.57812e-015 7.15625e-015
lhumerus -29.4161 21.8124 79.6276
lradius 9.39484
lwrist -23.1342
lhand -11.8605 44.3823
lfingers 7.12502
lthumb 14.1914 73.8775
rfemur -3.30647 4.44244 15.5732
rtibia 18.2494
rfoot -13.1198 -18.2872
rtoes -15.9388
lfemur -9.87753 -6.35701 -14.9229
ltibia 28.7978
lfoot -22.8286 15.1051
ltoes -13.988
449
root -23.2406 15.9765 -1.12356 -134.766 88.1451 -138.493
lowerback -6.30343 -0.340036 -6.19272
upperback -2.58655 -0.0363503 0.41636
thorax 0.862172 0.042885 3.90807
lowerneck -1.65041 -0.442682 3.76116
upperneck 3.07518 -0.782009 6.74388
head 1.24683 -0.186313 1.45946
rclavicle -3.23025e-015 6.36111e-015
rhumerus -33.6354 -17.3366 -81.697
rradius 15.7114
rwrist 16.6465
rhand -20.7522 36.4522
rfingers 7.12502
rthumb 5.61358 6.5466
lclavicle -3.23025e-015 6.36111e-015
lhumerus -29.3263 22.0532 79.5744
lradius 9.32672
lwrist -23.2261
lhand -12.0209 44.4062
lfingers 7.12502
lthumb 14.0368 73.9122
rfemur -3.3154 4.22919 15.359
rtibia 18.2446
rfoot -13.3949 -18.0284
rtoes -15.6348
lfemur -9.84829 -6.39865 -15.1286
ltibia 28.7973
lfoot -22.7414 15.2282
ltoes -13.3407
